<svg width="22" height="22" viewBox="0 0 22 22" fill="none" xmlns="http://www.w3.org/2000/svg">
<circle cx="10.91" cy="10.91" r="10.91" fill="#FF6827"/>
<path fill-rule="evenodd" clip-rule="evenodd" d="M10.1486 6.92058C10.374 7.07116 10.6389 7.15154 10.91 7.15154C11.2733 7.15115 11.6217 7.00664 11.8786 6.74972C12.1355 6.49279 12.28 6.14444 12.2804 5.78109C12.2804 5.51004 12.2001 5.24508 12.0495 5.01971C11.8989 4.79434 11.6849 4.61869 11.4344 4.51496C11.184 4.41124 10.9085 4.3841 10.6426 4.43698C10.3768 4.48986 10.1326 4.62038 9.94094 4.81204C9.74928 5.0037 9.61876 5.24789 9.56588 5.51373C9.513 5.77957 9.54014 6.05512 9.64386 6.30554C9.74759 6.55596 9.92324 6.76999 10.1486 6.92058ZM15.2062 7.17408L15.2172 7.17115C15.6821 7.04903 16 7.52208 16 7.95353C16 8.38497 15.6085 8.58809 15.2169 8.73493C15.2039 8.73983 15.1907 8.74408 15.1773 8.74765L12.9924 9.51143C12.7115 9.61691 12.5911 9.72654 12.5646 9.77549C12.5641 9.77676 12.5634 9.77799 12.5627 9.77916C12.5348 9.82884 12.4523 10.0408 12.5548 10.6822L12.6965 11.7834L13.4951 16.0595C13.5025 16.0924 13.5087 16.1255 13.5137 16.1588C13.5719 16.5553 13.2817 16.9405 12.7305 16.9405C12.2509 16.9405 12.0392 16.6094 11.9474 16.1588C11.9474 16.1588 11.2417 12.3027 10.899 12.3027C10.5989 12.3027 10.1062 14.9167 9.92699 15.8674C9.90165 16.0018 9.88258 16.103 9.87121 16.1588C9.77944 16.6094 9.56775 16.9405 9.08809 16.9405C8.53845 16.9405 8.24821 16.557 8.30498 16.1618L8.31061 16.1307C8.31257 16.1185 8.31477 16.1065 8.31722 16.0947L9.10498 11.7829L9.24692 10.6817C9.27555 10.5026 9.35631 9.98937 9.25524 9.73021C9.22416 9.64945 9.16053 9.55622 8.92242 9.46493L6.59217 8.73713V8.73028C6.20428 8.58418 5.82007 8.38057 5.82007 7.95304C5.82007 7.52135 6.13821 7.04903 6.60318 7.17139C6.66959 7.1887 6.73495 7.20978 6.79896 7.23453C7.44209 7.41734 9.45249 7.95573 10.8995 7.95573C12.4567 7.95573 14.667 7.33266 15.1225 7.19905C15.1469 7.19146 15.1714 7.18412 15.1959 7.17727L15.2062 7.17408Z" fill="white"/>
</svg>
