<svg width="25" height="25" viewBox="0 0 25 25" fill="none" xmlns="http://www.w3.org/2000/svg">
<rect width="25" height="25" rx="7" fill="#FF6827"/>
<path d="M8.14528 14.6987V12.3116H10.5324V10.7202H8.14528V8.33301H6.55384V10.7202H4.16669V12.3116H6.55384V14.6987H8.14528Z" fill="white"/>
<path d="M13.9275 12.8857C15.5682 12.8857 16.8982 11.5557 16.8982 9.91502C16.8982 8.27435 15.5682 6.94434 13.9275 6.94434C12.2869 6.94434 10.9568 8.27435 10.9568 9.91502C10.9568 11.5557 12.2869 12.8857 13.9275 12.8857Z" fill="white"/>
<path d="M13.9276 13.7344C12.0863 13.7344 8.41058 14.8717 8.41058 17.1294V18.827H19.4445V17.1294C19.4445 14.8717 15.7688 13.7344 13.9276 13.7344Z" fill="white"/>
</svg>
