<svg width="22" height="16" viewBox="0 0 22 16" fill="none" xmlns="http://www.w3.org/2000/svg">
<path d="M6.18191 8.00004C7.98938 8.00004 9.45463 6.53479 9.45463 4.72732C9.45463 2.91984 7.98938 1.45459 6.18191 1.45459C4.37443 1.45459 2.90918 2.91984 2.90918 4.72732C2.90918 6.53479 4.37443 8.00004 6.18191 8.00004Z" fill="#FF6827"/>
<path d="M9.90909 9.81827C8.62909 9.16827 7.21636 8.90918 6.18182 8.90918C4.15545 8.90918 0 10.1519 0 12.6365V14.5455H6.81818V13.8151C6.81818 12.9515 7.18182 12.0855 7.81818 11.3637C8.32591 10.7874 9.03682 10.2524 9.90909 9.81827Z" fill="#FF6827"/>
<path d="M14.7274 9.45459C12.3606 9.45459 7.63647 10.9164 7.63647 13.8182V16H21.8183V13.8182C21.8183 10.9164 17.0942 9.45459 14.7274 9.45459Z" fill="#FF6827"/>
<path d="M14.7273 8C16.9364 8 18.7273 6.20914 18.7273 4C18.7273 1.79086 16.9364 0 14.7273 0C12.5182 0 10.7273 1.79086 10.7273 4C10.7273 6.20914 12.5182 8 14.7273 8Z" fill="#FF6827"/>
</svg>
