<svg width="19" height="20" viewBox="0 0 19 20" fill="none" xmlns="http://www.w3.org/2000/svg">
<ellipse cx="9.5" cy="9.55997" rx="9.5" ry="9.52334" fill="#FF6827"/>
<path d="M12.8751 6.17756C12.8166 6.119 12.7426 6.07862 12.6618 6.06128C12.581 6.04394 12.4969 6.05038 12.4197 6.07982L5.27616 8.79035H5.27473C5.19236 8.8221 5.12178 8.87858 5.07263 8.95205C5.02348 9.02553 4.99815 9.11242 5.00011 9.20087C5.00206 9.28931 5.0312 9.375 5.08355 9.44622C5.1359 9.51744 5.2089 9.57073 5.29259 9.5988L5.29991 9.60112L7.75174 10.6507C7.79957 10.6653 7.85036 10.667 7.89905 10.6557C7.94775 10.6444 7.99264 10.6206 8.02925 10.5864L11.9643 6.91065C11.9761 6.89889 11.99 6.88957 12.0053 6.88321C12.0206 6.87685 12.037 6.87357 12.0536 6.87357C12.0702 6.87357 12.0866 6.87685 12.1019 6.88321C12.1173 6.88957 12.1312 6.89889 12.1429 6.91065C12.1546 6.9224 12.1639 6.93636 12.1703 6.95171C12.1766 6.96707 12.1799 6.98353 12.1799 7.00016C12.1799 7.01678 12.1766 7.03324 12.1703 7.0486C12.1639 7.06396 12.1546 7.07791 12.1429 7.08967L8.47604 11.0327C8.44202 11.0694 8.4182 11.1144 8.40695 11.1633C8.3957 11.2121 8.39742 11.263 8.41194 11.3109L9.45928 13.7703C9.46035 13.7739 9.46142 13.7771 9.46267 13.7805C9.51982 13.9465 9.66446 14.0635 9.83929 14.0714H9.85714C9.9454 14.0719 10.0318 14.0458 10.105 13.9964C10.1783 13.9471 10.235 13.8768 10.2679 13.7946L12.9713 6.63532C13.0011 6.55785 13.0079 6.47339 12.9908 6.39216C12.9737 6.31092 12.9335 6.23638 12.8751 6.17756Z" fill="white"/>
</svg>
