<svg width="22" height="22" viewBox="0 0 22 22" fill="none" xmlns="http://www.w3.org/2000/svg">
<circle cx="10.91" cy="10.91" r="10.91" fill="#FF6827"/>
<path d="M10.3784 12.215C10.3784 11.8222 10.4657 11.4986 10.6402 11.244C10.8221 10.9821 11.0839 10.6985 11.4257 10.393C11.6876 10.1603 11.8803 9.96025 12.004 9.79296C12.1349 9.6184 12.2004 9.42202 12.2004 9.20382C12.2004 8.89834 12.0767 8.65105 11.8294 8.46194C11.5821 8.27283 11.2512 8.17828 10.8366 8.17828C10.0511 8.17828 9.4583 8.4583 9.05827 9.01835L8 8.33102C8.31275 7.90189 8.71642 7.57459 9.21101 7.34912C9.7056 7.11637 10.2875 7 10.9566 7C11.7712 7 12.4186 7.1782 12.8986 7.53459C13.3859 7.88371 13.6296 8.36739 13.6296 8.98562C13.6296 9.28383 13.5786 9.54567 13.4768 9.77114C13.3823 9.99661 13.2659 10.1894 13.1277 10.3494C12.9895 10.5021 12.8077 10.6803 12.5822 10.884C12.3058 11.1313 12.0985 11.3495 11.9603 11.5386C11.8294 11.7277 11.764 11.9531 11.764 12.215H10.3784ZM11.0766 14.8225C10.8221 14.8225 10.6111 14.7425 10.4438 14.5824C10.2838 14.4152 10.2038 14.2115 10.2038 13.9715C10.2038 13.7315 10.2838 13.5315 10.4438 13.3714C10.6111 13.2114 10.8221 13.1314 11.0766 13.1314C11.3239 13.1314 11.5276 13.2114 11.6876 13.3714C11.8549 13.5315 11.9385 13.7315 11.9385 13.9715C11.9385 14.2115 11.8549 14.4152 11.6876 14.5824C11.5276 14.7425 11.3239 14.8225 11.0766 14.8225Z" fill="white"/>
</svg>
