<svg width="18" height="22" viewBox="0 0 18 22" fill="none" xmlns="http://www.w3.org/2000/svg">
<path fill-rule="evenodd" clip-rule="evenodd" d="M10.1307 9.35143H16.9495C17.0011 9.35143 17.0507 9.37195 17.0872 9.40849C17.1238 9.44503 17.1443 9.49458 17.1443 9.54625V18.7029C17.1443 19.5296 16.8159 20.3224 16.2313 20.907C15.6467 21.4916 14.8539 21.82 14.0271 21.82H3.11714C2.29043 21.82 1.49757 21.4916 0.91299 20.907C0.328412 20.3224 0 19.5296 0 18.7029V3.11714C0 2.29043 0.328412 1.49757 0.91299 0.91299C1.49757 0.328412 2.29043 0 3.11714 0H7.59804C7.6497 0 7.69926 0.0205258 7.7358 0.0570619C7.77233 0.093598 7.79286 0.143152 7.79286 0.194821V7.01357C7.79286 7.63361 8.03917 8.22825 8.4776 8.66669C8.91603 9.10512 9.51068 9.35143 10.1307 9.35143ZM4.67571 17.1443H12.4686C12.6753 17.1443 12.8735 17.0622 13.0196 16.916C13.1658 16.7699 13.2479 16.5717 13.2479 16.365C13.2479 16.1583 13.1658 15.9601 13.0196 15.814C12.8735 15.6678 12.6753 15.5857 12.4686 15.5857H4.67571C4.46903 15.5857 4.27082 15.6678 4.12468 15.814C3.97853 15.9601 3.89643 16.1583 3.89643 16.365C3.89643 16.5717 3.97853 16.7699 4.12468 16.916C4.27082 17.0622 4.46903 17.1443 4.67571 17.1443ZM4.67571 13.2479H12.4686C12.6753 13.2479 12.8735 13.1658 13.0196 13.0196C13.1658 12.8735 13.2479 12.6753 13.2479 12.4686C13.2479 12.2619 13.1658 12.0637 13.0196 11.9175C12.8735 11.7714 12.6753 11.6893 12.4686 11.6893H4.67571C4.46903 11.6893 4.27082 11.7714 4.12468 11.9175C3.97853 12.0637 3.89643 12.2619 3.89643 12.4686C3.89643 12.6753 3.97853 12.8735 4.12468 13.0196C4.27082 13.1658 4.46903 13.2479 4.67571 13.2479ZM9.51751 0.622453L16.5218 7.62677C16.5354 7.64039 16.5446 7.65771 16.5483 7.67655C16.552 7.6954 16.5501 7.71492 16.5428 7.73267C16.5354 7.75042 16.523 7.7656 16.5071 7.77631C16.4911 7.78702 16.4724 7.79278 16.4532 7.79286H10.1307C9.92404 7.79286 9.72582 7.71075 9.57968 7.56461C9.43353 7.41846 9.35143 7.22025 9.35143 7.01357V0.691127C9.35151 0.671921 9.35727 0.653167 9.36798 0.637223C9.37868 0.621279 9.39387 0.608857 9.41162 0.601518C9.42937 0.594179 9.44889 0.59225 9.46773 0.595975C9.48657 0.5997 9.50389 0.608912 9.51751 0.622453Z" fill="#FF6827"/>
</svg>
