<svg width="10" height="10" viewBox="0 0 10 10" fill="none" xmlns="http://www.w3.org/2000/svg">
<path d="M9.84673 8.99624L7.57979 6.72929C8.12557 6.00271 8.42019 5.11833 8.4192 4.2096C8.4192 1.88844 6.53076 0 4.2096 0C1.88844 0 0 1.88844 0 4.2096C0 6.53076 1.88844 8.4192 4.2096 8.4192C5.11833 8.42019 6.00271 8.12557 6.72929 7.57979L8.99624 9.84673C9.11099 9.94931 9.26066 10.0041 9.41452 9.99976C9.56837 9.99546 9.71474 9.93242 9.82358 9.82358C9.93242 9.71474 9.99546 9.56837 9.99976 9.41452C10.0041 9.26066 9.94931 9.11099 9.84673 8.99624ZM1.20274 4.2096C1.20274 3.6149 1.37909 3.03355 1.70949 2.53908C2.03989 2.0446 2.50949 1.65921 3.05893 1.43163C3.60836 1.20404 4.21294 1.1445 4.79621 1.26052C5.37948 1.37654 5.91525 1.66291 6.33577 2.08343C6.75629 2.50395 7.04266 3.03972 7.15868 3.62299C7.2747 4.20626 7.21516 4.81084 6.98757 5.36027C6.75999 5.9097 6.3746 6.37931 5.88012 6.70971C5.38565 7.04011 4.8043 7.21646 4.2096 7.21646C3.41243 7.2155 2.64818 6.8984 2.08449 6.33471C1.5208 5.77102 1.2037 5.00677 1.20274 4.2096Z" fill="#B1B1B1"/>
</svg>
