<svg width="17" height="22" viewBox="0 0 17 22" fill="none" xmlns="http://www.w3.org/2000/svg">
<path d="M14.9325 9.5025H13.575V5.43C13.575 2.4435 11.1315 0 8.145 0C5.1585 0 2.715 2.4435 2.715 5.43V9.5025H1.3575C0.67875 9.5025 0 10.1812 0 10.86V20.3625C0 21.0413 0.67875 21.72 1.3575 21.72H14.9325C15.6113 21.72 16.29 21.0413 16.29 20.3625V10.86C16.29 10.1812 15.6113 9.5025 14.9325 9.5025ZM9.5025 19.005H6.7875L7.3305 16.0185C6.65175 15.747 6.10875 14.9325 6.10875 14.2537C6.10875 13.1677 7.059 12.2175 8.145 12.2175C9.231 12.2175 10.1813 13.1677 10.1813 14.2537C10.1813 15.0682 9.774 15.747 8.9595 16.0185L9.5025 19.005ZM10.86 9.5025H5.43V5.43C5.43 3.93675 6.65175 2.715 8.145 2.715C9.63825 2.715 10.86 3.93675 10.86 5.43V9.5025Z" fill="#FF6827"/>
</svg>
