<svg width="24" height="22" viewBox="0 0 24 22" fill="none" xmlns="http://www.w3.org/2000/svg">
<path d="M12.0588 3.40194C11.9857 3.332 11.8884 3.29297 11.7872 3.29297C11.686 3.29297 11.5888 3.332 11.5157 3.40194L2.47503 12.0384C2.43664 12.0751 2.40609 12.1193 2.38524 12.1681C2.3644 12.217 2.35368 12.2696 2.35374 12.3227L2.35226 20.4284C2.35226 20.8451 2.51783 21.2448 2.81253 21.5395C3.10723 21.8342 3.50692 21.9998 3.92369 21.9998H8.64289C8.85127 21.9998 9.05112 21.917 9.19847 21.7697C9.34582 21.6223 9.4286 21.4225 9.4286 21.2141V14.5355C9.4286 14.4313 9.46999 14.3314 9.54367 14.2577C9.61734 14.184 9.71727 14.1427 9.82146 14.1427H13.75C13.8542 14.1427 13.9541 14.184 14.0278 14.2577C14.1015 14.3314 14.1429 14.4313 14.1429 14.5355V21.2141C14.1429 21.4225 14.2257 21.6223 14.373 21.7697C14.5204 21.917 14.7202 21.9998 14.9286 21.9998H19.6458C20.0626 21.9998 20.4623 21.8342 20.757 21.5395C21.0517 21.2448 21.2173 20.8451 21.2173 20.4284V12.3227C21.2173 12.2696 21.2066 12.217 21.1858 12.1681C21.1649 12.1193 21.1344 12.0751 21.096 12.0384L12.0588 3.40194Z" fill="#B1B1B1"/>
<path d="M23.3215 10.4181L19.6483 6.90398V1.57143C19.6483 1.36304 19.5655 1.1632 19.4181 1.01584C19.2708 0.868495 19.0709 0.785715 18.8626 0.785715H16.5054C16.297 0.785715 16.0972 0.868495 15.9498 1.01584C15.8025 1.1632 15.7197 1.36304 15.7197 1.57143V3.14286L12.8754 0.423304C12.6093 0.154196 12.2135 0 11.7857 0C11.3595 0 10.9647 0.154197 10.6985 0.423795L0.253411 10.4171C-0.052035 10.7117 -0.0903385 11.1964 0.187608 11.5156C0.257404 11.5962 0.342866 11.6617 0.43879 11.7082C0.534715 11.7547 0.639097 11.7812 0.745583 11.7861C0.852069 11.7909 0.958433 11.7741 1.0582 11.7365C1.15797 11.699 1.24905 11.6415 1.32591 11.5677L11.5156 1.83071C11.5888 1.76078 11.686 1.72174 11.7872 1.72174C11.8884 1.72174 11.9857 1.76078 12.0588 1.83071L22.2495 11.5677C22.3996 11.7116 22.6007 11.7902 22.8086 11.7862C23.0166 11.7821 23.2144 11.6958 23.3588 11.5461C23.6603 11.2338 23.6353 10.7181 23.3215 10.4181Z" fill="#B1B1B1"/>
</svg>
