<svg width="22" height="21" viewBox="0 0 22 21" fill="none" xmlns="http://www.w3.org/2000/svg">
<path d="M18.6635 0H9.55937C8.71455 0.000903717 7.90459 0.336909 7.30721 0.93429C6.70983 1.53167 6.37382 2.34163 6.37292 3.18646V9.10417H15.0998L12.1023 6.10605C11.9388 5.93393 11.8489 5.70473 11.852 5.46733C11.855 5.22993 11.9507 5.0031 12.1186 4.83522C12.2864 4.66734 12.5133 4.57168 12.7507 4.56864C12.9881 4.5656 13.2173 4.65542 13.3894 4.81895L17.9415 9.37103C18.1121 9.54175 18.2079 9.77323 18.2079 10.0146C18.2079 10.2559 18.1121 10.4874 17.9415 10.6581L13.3894 15.2102C13.2173 15.3737 12.9881 15.4636 12.7507 15.4605C12.5133 15.4575 12.2864 15.3618 12.1186 15.1939C11.9507 15.0261 11.855 14.7992 11.852 14.5618C11.8489 14.3244 11.9388 14.0952 12.1023 13.9231L15.0998 10.925H6.37292V16.8427C6.37292 18.6664 8.2956 20.0292 10.0146 20.0292H18.6635C19.5084 20.0283 20.3183 19.6923 20.9157 19.0949C21.5131 18.4975 21.8491 17.6875 21.85 16.8427V3.18646C21.8491 2.34163 21.5131 1.53167 20.9157 0.93429C20.3183 0.336909 19.5084 0.000903717 18.6635 0ZM0.910417 9.10417C0.668959 9.10417 0.437391 9.20009 0.266655 9.37082C0.0959188 9.54156 0 9.77313 0 10.0146C0 10.256 0.0959188 10.4876 0.266655 10.6583C0.437391 10.8291 0.668959 10.925 0.910417 10.925H6.37292V9.10417H0.910417Z" fill="#FF0000"/>
</svg>
