<svg width="22" height="22" viewBox="0 0 22 22" fill="none" xmlns="http://www.w3.org/2000/svg">
<path d="M10.6245 7.11522C9.87393 7.11522 9.14025 7.33778 8.5162 7.75475C7.89215 8.17173 7.40577 8.76439 7.11855 9.4578C6.83133 10.1512 6.75618 10.9142 6.9026 11.6503C7.04903 12.3864 7.41044 13.0626 7.94115 13.5933C8.47186 14.124 9.14803 14.4854 9.88415 14.6319C10.6203 14.7783 11.3833 14.7031 12.0767 14.4159C12.7701 14.1287 13.3627 13.6423 13.7797 13.0183C14.1967 12.3942 14.4193 11.6605 14.4193 10.91C14.4163 9.90448 14.0155 8.94101 13.3045 8.23C12.5935 7.51899 11.63 7.11822 10.6245 7.11522ZM18.8174 10.91C18.8154 11.2646 18.7894 11.6186 18.7396 11.9697L21.0492 13.7779C21.1498 13.861 21.2176 13.9771 21.2404 14.1055C21.2633 14.234 21.2397 14.3663 21.174 14.479L18.9891 18.251C18.9227 18.3627 18.819 18.4473 18.6964 18.4901C18.5737 18.5329 18.4398 18.531 18.3184 18.4849L15.6028 17.3939C15.0373 17.8293 14.4185 18.1907 13.7613 18.4692L13.3553 21.3523C13.3326 21.4814 13.2657 21.5987 13.1661 21.684C13.0665 21.7693 12.9404 21.8174 12.8093 21.82H8.43962C8.31091 21.8175 8.18685 21.7714 8.08769 21.6893C7.98852 21.6072 7.92012 21.4939 7.89365 21.3679L7.48761 18.4849C6.82868 18.2096 6.20941 17.8476 5.64619 17.4086L2.93055 18.4996C2.80916 18.5458 2.67536 18.5477 2.55269 18.505C2.43001 18.4623 2.32631 18.3778 2.25982 18.2662L0.0749748 14.4946C0.00921024 14.382 -0.0143503 14.2496 0.00850365 14.1212C0.0313576 13.9927 0.0991366 13.8766 0.199728 13.7936L2.50933 11.9853C2.46007 11.629 2.43408 11.2698 2.43154 10.91C2.43351 10.5554 2.4595 10.2014 2.50933 9.85031L0.199728 8.04209C0.0991366 7.95903 0.0313576 7.84291 0.00850365 7.71448C-0.0143503 7.58604 0.00921024 7.45367 0.0749748 7.34101L2.25982 3.56899C2.32624 3.45733 2.42991 3.37266 2.55259 3.32989C2.67527 3.28712 2.8091 3.28898 2.93055 3.33514L5.64619 4.42614C6.21167 3.99069 6.83049 3.62932 7.48761 3.35079L7.89365 0.467707C7.91638 0.338565 7.98324 0.221324 8.08283 0.136017C8.18241 0.0507095 8.30853 0.00263203 8.43962 0H12.8093C12.938 0.00250528 13.0621 0.0485691 13.1613 0.130672C13.2604 0.212774 13.3288 0.326066 13.3553 0.452053L13.7613 3.33514C14.4211 3.61025 15.0412 3.97221 15.6051 4.41143L18.3184 3.32043C18.4398 3.27423 18.5736 3.2723 18.6963 3.31498C18.8189 3.35767 18.9226 3.44223 18.9891 3.55381L21.174 7.32583C21.2397 7.43849 21.2633 7.57086 21.2404 7.6993C21.2176 7.82773 21.1498 7.94385 21.0492 8.02691L18.7396 9.83513C18.7889 10.1913 18.8148 10.5504 18.8174 10.91Z" fill="#FF6827"/>
</svg>
