<svg width="23" height="26" viewBox="0 0 23 26" fill="none" xmlns="http://www.w3.org/2000/svg">
<path fill-rule="evenodd" clip-rule="evenodd" d="M2.72786 3.7162C3.23969 3.68421 3.68055 4.0732 3.71254 4.58503L4.87325 23.1564C4.87347 23.1599 4.87366 23.1633 4.87384 23.1667C4.90595 23.7916 5.32085 24.1429 5.80363 24.1429H16.4822C16.9602 24.1429 17.3733 23.7995 17.4125 23.1577L18.5733 4.58503C18.6053 4.0732 19.0461 3.68421 19.558 3.7162C20.0698 3.74819 20.4588 4.18904 20.4268 4.70088L19.2662 23.271C19.2662 23.2711 19.2662 23.2711 19.2662 23.2712C19.1742 24.7755 18.0551 26.0001 16.4822 26.0001H5.80363C4.24546 26.0001 3.10011 24.7862 3.01944 23.2676L1.85902 4.70088C1.82703 4.18904 2.21602 3.74819 2.72786 3.7162Z" fill="#FF0000"/>
<path fill-rule="evenodd" clip-rule="evenodd" d="M0 4.64293C0 4.13009 0.415735 3.71436 0.92857 3.71436H21.3571C21.87 3.71436 22.2857 4.13009 22.2857 4.64293C22.2857 5.15576 21.87 5.5715 21.3571 5.5715H0.92857C0.415735 5.5715 0 5.15576 0 4.64293Z" fill="#FF0000"/>
<path fill-rule="evenodd" clip-rule="evenodd" d="M8.81865 1.85714C8.75798 1.85696 8.69788 1.86878 8.6418 1.89192C8.58572 1.91505 8.53477 1.94904 8.49187 1.99194C8.44898 2.03483 8.41498 2.08579 8.39185 2.14187C8.36872 2.19795 8.3569 2.25805 8.35708 2.31871L8.35708 2.32143V4.64286C8.35708 5.15569 7.94135 5.57143 7.42851 5.57143C6.91568 5.57143 6.49994 5.15569 6.49994 4.64286V2.32262C6.49925 2.01768 6.55875 1.71559 6.67504 1.43368C6.79152 1.1513 6.96268 0.894735 7.17868 0.67874C7.39467 0.462745 7.65124 0.291584 7.93362 0.175102C8.21553 0.058815 8.51761 -0.000685548 8.82255 5.95885e-06H13.463C13.768 -0.000685548 14.0701 0.0588152 14.352 0.175102C14.6343 0.291583 14.8909 0.462743 15.1069 0.67874C15.3229 0.894737 15.4941 1.1513 15.6105 1.43368C15.7269 1.71565 15.7864 2.0178 15.7856 2.32281V4.64286C15.7856 5.15569 15.3699 5.57143 14.8571 5.57143C14.3442 5.57143 13.9285 5.15569 13.9285 4.64286V2.32143L13.9285 2.31871C13.9287 2.25805 13.9169 2.19795 13.8937 2.14187C13.8706 2.08578 13.8366 2.03483 13.7937 1.99194C13.7508 1.94904 13.6999 1.91505 13.6438 1.89192C13.5877 1.86878 13.5276 1.85696 13.4669 1.85714L13.4642 1.85715H8.82137L8.81865 1.85714ZM6.93108 7.42916C7.44359 7.41086 7.8739 7.81149 7.8922 8.324L8.35649 21.324C8.37479 21.8365 7.97416 22.2668 7.46165 22.2851C6.94915 22.3034 6.51884 21.9028 6.50053 21.3903L6.03625 8.39028C6.01794 7.87777 6.41858 7.44746 6.93108 7.42916ZM15.3545 7.42916C15.867 7.44746 16.2676 7.87777 16.2493 8.39028L15.7851 21.3903C15.7667 21.9028 15.3364 22.3034 14.8239 22.2851C14.3114 22.2668 13.9108 21.8365 13.9291 21.324L14.3934 8.324C14.4117 7.81149 14.842 7.41086 15.3545 7.42916ZM11.1428 7.42857C11.6556 7.42857 12.0714 7.8443 12.0714 8.35714V21.3571C12.0714 21.87 11.6556 22.2857 11.1428 22.2857C10.63 22.2857 10.2142 21.87 10.2142 21.3571V8.35714C10.2142 7.8443 10.63 7.42857 11.1428 7.42857Z" fill="#FF0000"/>
</svg>
