<svg width="14" height="22" viewBox="0 0 14 22" fill="none" xmlns="http://www.w3.org/2000/svg">
<path d="M12.9556 21.818C12.7889 21.8185 12.6277 21.7492 12.5026 21.6232L6.81875 15.8477L1.1349 21.6232C1.03654 21.7231 0.914977 21.7883 0.784883 21.8111C0.654789 21.8338 0.521722 21.813 0.401737 21.7512C0.281753 21.6894 0.179978 21.5893 0.108693 21.4629C0.0374081 21.3364 -0.000340334 21.1891 2.31211e-06 21.0388V3.11685C0.000791947 2.29049 0.288406 1.49823 0.799741 0.913902C1.31107 0.329574 2.00437 0.000902356 2.7275 0H10.91C11.6331 0.000902356 12.3264 0.329574 12.8378 0.913902C13.3491 1.49823 13.6367 2.29049 13.6375 3.11685V21.0388C13.6375 21.2454 13.5657 21.4436 13.4378 21.5897C13.3099 21.7359 13.1365 21.818 12.9556 21.818Z" fill="#FF6827"/>
</svg>
