<svg width="12" height="12" viewBox="0 0 12 12" fill="none" xmlns="http://www.w3.org/2000/svg">
<path d="M8.49991 0.999911C9.16239 1.00189 9.79717 1.26594 10.2656 1.73438C10.7341 2.20283 10.9981 2.83761 11.0001 3.50009V8.49991C10.9981 9.16239 10.7341 9.79717 10.2656 10.2656C9.79717 10.7341 9.16239 10.9981 8.49991 11.0001H3.50009C2.83761 10.9981 2.20283 10.7341 1.73438 10.2656C1.26594 9.79717 1.00189 9.16239 0.999911 8.49991V3.50009C1.00189 2.83761 1.26594 2.20283 1.73438 1.73438C2.20283 1.26594 2.83761 1.00189 3.50009 0.999911H8.49991M8.49991 0H3.50009C1.575 0 0 1.575 0 3.50009V8.49991C0 10.425 1.575 12 3.50009 12H8.49991C10.425 12 12 10.425 12 8.49991V3.50009C12 1.575 10.425 0 8.49991 0V0Z" fill="#929191"/>
<path d="M9.24999 3.50002C9.10165 3.50002 8.95665 3.45603 8.83331 3.37362C8.70997 3.29121 8.61384 3.17407 8.55707 3.03703C8.5003 2.89998 8.48545 2.74918 8.51439 2.60369C8.54333 2.4582 8.61476 2.32456 8.71965 2.21967C8.82454 2.11478 8.95818 2.04335 9.10367 2.01441C9.24916 1.98547 9.39996 2.00032 9.53701 2.05709C9.67405 2.11386 9.79119 2.20999 9.8736 2.33333C9.95601 2.45667 10 2.60167 10 2.75001C10.0002 2.84856 9.98096 2.94619 9.94334 3.03728C9.90572 3.12837 9.85049 3.21113 9.7808 3.28082C9.71111 3.35051 9.62835 3.40574 9.53726 3.44336C9.44617 3.48098 9.34854 3.50023 9.24999 3.50002V3.50002ZM6.00004 3.99985C6.39562 3.99985 6.78233 4.11715 7.11124 4.33693C7.44016 4.5567 7.69652 4.86908 7.8479 5.23455C7.99929 5.60002 8.0389 6.00218 7.96172 6.39016C7.88455 6.77815 7.69405 7.13453 7.41433 7.41425C7.13461 7.69398 6.77823 7.88447 6.39024 7.96164C6.00226 8.03882 5.6001 7.99921 5.23463 7.84783C4.86916 7.69644 4.55678 7.44008 4.337 7.11116C4.11723 6.78225 3.99992 6.39555 3.99992 5.99996C4.00049 5.46967 4.2114 4.96126 4.58637 4.58629C4.96134 4.21132 5.46975 4.00041 6.00004 3.99985M6.00004 2.99992C5.40669 2.99992 4.82666 3.17587 4.33331 3.50552C3.83995 3.83517 3.45543 4.30371 3.22837 4.8519C3.0013 5.40008 2.94189 6.00329 3.05765 6.58524C3.1734 7.16719 3.45913 7.70174 3.87869 8.12131C4.29825 8.54087 4.83281 8.8266 5.41476 8.94235C5.99671 9.05811 6.59992 8.9987 7.1481 8.77163C7.69629 8.54457 8.16483 8.16005 8.49448 7.66669C8.82413 7.17334 9.00008 6.59331 9.00008 5.99996C9.00008 5.2043 8.684 4.44123 8.12139 3.87861C7.55877 3.316 6.7957 2.99992 6.00004 2.99992V2.99992Z" fill="#929191"/>
</svg>
