<svg width="11" height="12" viewBox="0 0 11 12" fill="none" xmlns="http://www.w3.org/2000/svg">
<path d="M9.42857 4.28543L6.08571 3.96399L6.57857 1.56926C6.70714 0.856732 6.56186 0.447699 6.09707 0.267425L5.35371 0.00357569C5.33612 -0.00225284 5.3175 -0.000929676 5.30055 0.0073537C5.2836 0.0156371 5.2692 0.0304506 5.25943 0.0496487L2.49514 5.46967C2.47981 5.50084 2.45835 5.52658 2.43281 5.54445C2.40726 5.56231 2.37848 5.5717 2.34921 5.57173H0V11.1428H2.52021C2.63077 11.1428 2.74061 11.165 2.8455 11.2087L4.4805 11.8899C4.65531 11.9628 4.83837 12 5.02264 12H8.83543C9.24257 12 9.51043 11.6378 9.59036 11.1385L10.2857 7.32786V5.3569C10.2857 4.76598 9.9 4.339 9.42857 4.28543Z" fill="#B1B1B1"/>
</svg>
