<svg width="29" height="24" viewBox="0 0 29 24" fill="none" xmlns="http://www.w3.org/2000/svg">
<path fill-rule="evenodd" clip-rule="evenodd" d="M2.44777 0.00141054C1.06819 -0.0449743 -0.0591567 1.05885 0.00240745 2.39575L0.626367 15.9454C0.684363 17.2048 1.78003 18.1827 3.0795 18.1349L16.6305 17.636C17.5916 18.4922 19.0417 19.7496 20.2816 20.6818C22.3469 22.2345 25.6836 23.5333 25.6836 23.5333C25.6836 23.5333 24.2015 21.213 23.4849 19.3742C23.227 18.7122 23.1119 18.0173 23.0704 17.3989L25.3105 17.3165C26.4907 17.273 27.4571 16.3923 27.5747 15.2529L28.8044 3.33145C28.9404 2.01278 27.8986 0.857128 26.5324 0.811193L2.44777 0.00141054Z" fill="white"/>
<path d="M13.6143 11.8331L9.19226 9.23584V12.0316L13.6143 14.5564L18.0364 12.0316V9.23584L13.6143 11.8331Z" fill="#FF6827"/>
<path d="M20.7576 6.89792L13.6143 2.98438L6.47095 6.89792L13.6143 10.8115L19.4126 7.63476V12.0294H20.7507V6.90166L20.7576 6.89792Z" fill="#FF6827"/>
</svg>
