<svg width="23" height="22" viewBox="0 0 23 22" fill="none" xmlns="http://www.w3.org/2000/svg">
<path d="M22.0378 19.7917L17.0505 14.8044C18.2512 13.206 18.8994 11.2603 18.8972 9.26112C18.8972 4.15457 14.7427 0 9.6361 0C4.52956 0 0.374985 4.15457 0.374985 9.26112C0.374985 14.3677 4.52956 18.5222 9.6361 18.5222C11.6353 18.5244 13.581 17.8762 15.1794 16.6755L20.1667 21.6628C20.4192 21.8885 20.7484 22.009 21.0869 21.9995C21.4254 21.99 21.7474 21.8513 21.9869 21.6119C22.2263 21.3724 22.365 21.0504 22.3745 20.7119C22.3839 20.3734 22.2635 20.0442 22.0378 19.7917ZM3.02102 9.26112C3.02102 7.95278 3.40899 6.67382 4.13586 5.58598C4.86274 4.49813 5.89587 3.65026 7.10462 3.14958C8.31337 2.6489 9.64344 2.5179 10.9266 2.77314C12.2098 3.02839 13.3885 3.65841 14.3137 4.58355C15.2388 5.50868 15.8688 6.68738 16.1241 7.97058C16.3793 9.25378 16.2483 10.5839 15.7476 11.7926C15.247 13.0014 14.3991 14.0345 13.3112 14.7614C12.2234 15.4882 10.9444 15.8762 9.6361 15.8762C7.88232 15.8741 6.20097 15.1765 4.96086 13.9364C3.72074 12.6963 3.02312 11.0149 3.02102 9.26112Z" fill="#B1B1B1"/>
</svg>
