<svg width="29" height="22" viewBox="0 0 29 22" fill="none" xmlns="http://www.w3.org/2000/svg">
<path d="M24.875 0H3.875C2.94705 0.000992641 2.05738 0.37006 1.40122 1.02622C0.74506 1.68238 0.375993 2.57205 0.375 3.5V18.5C0.375993 19.428 0.74506 20.3176 1.40122 20.9738C2.05738 21.6299 2.94705 21.999 3.875 22H24.875C25.803 21.999 26.6926 21.6299 27.3488 20.9738C28.0049 20.3176 28.374 19.428 28.375 18.5V3.5C28.374 2.57205 28.0049 1.68238 27.3488 1.02622C26.6926 0.37006 25.803 0.000992641 24.875 0ZM23.9888 5.78938L14.9888 12.7894C14.8132 12.9258 14.5973 12.9999 14.375 12.9999C14.1527 12.9999 13.9368 12.9258 13.7612 12.7894L4.76125 5.78938C4.65551 5.70952 4.56669 5.60945 4.49996 5.49497C4.43323 5.3805 4.38991 5.2539 4.37253 5.12254C4.35515 4.99118 4.36405 4.85767 4.39871 4.72978C4.43337 4.60189 4.4931 4.48216 4.57444 4.37755C4.65577 4.27294 4.75708 4.18554 4.87249 4.12043C4.98789 4.05532 5.11508 4.01379 5.24668 3.99825C5.37827 3.98272 5.51164 3.9935 5.63903 4.02996C5.76642 4.06642 5.8853 4.12783 5.98875 4.21062L14.375 10.7331L22.7612 4.21062C22.971 4.05226 23.2346 3.98281 23.4951 4.01728C23.7556 4.05175 23.992 4.18738 24.1533 4.39483C24.3146 4.60228 24.3878 4.86488 24.357 5.12585C24.3262 5.38682 24.1939 5.62518 23.9888 5.78938Z" fill="#B1B1B1"/>
</svg>
