<svg width="12" height="11" viewBox="0 0 12 11" fill="none" xmlns="http://www.w3.org/2000/svg">
<path d="M3 11C2.88634 11 2.77733 10.9554 2.69695 10.8761C2.61658 10.7967 2.57143 10.6891 2.57143 10.5769V8.88462H1.92857C1.41726 8.88406 0.927046 8.68329 0.565492 8.32637C0.203938 7.96945 0.000567183 7.48553 0 6.98077V1.90385C0.000567183 1.39909 0.203938 0.915161 0.565492 0.558242C0.927046 0.201323 1.41726 0.000559911 1.92857 0H10.0714C10.5827 0.000559911 11.073 0.201323 11.4345 0.558242C11.7961 0.915161 11.9994 1.39909 12 1.90385V6.98077C11.9994 7.48553 11.7961 7.96945 11.4345 8.32637C11.073 8.68329 10.5827 8.88406 10.0714 8.88462H5.72518L3.27455 10.9019C3.19743 10.9652 3.10031 10.9999 3 11Z" fill="#B1B1B1"/>
</svg>
