<svg width="18" height="21" viewBox="0 0 18 21" fill="none" xmlns="http://www.w3.org/2000/svg">
<path d="M17.6216 14.4989C17.5438 14.4052 17.4675 14.3114 17.3926 14.2209C16.3622 12.9736 15.7388 12.2208 15.7388 8.68969C15.7388 6.86156 15.3018 5.36156 14.4405 4.23656C13.8054 3.40547 12.9469 2.775 11.8154 2.30906C11.8008 2.30096 11.7878 2.29032 11.777 2.27766C11.37 0.913594 10.2562 0 9.00012 0C7.74399 0 6.63071 0.913594 6.22371 2.27625C6.21285 2.28845 6.20002 2.29875 6.18577 2.30672C3.54519 3.39469 2.26189 5.48203 2.26189 8.68828C2.26189 12.2208 1.63945 12.9736 0.608132 14.2195C0.533196 14.31 0.456854 14.4019 0.379107 14.4975C0.178277 14.7399 0.0510342 15.0348 0.0124382 15.3473C-0.0261579 15.6598 0.0255081 15.9769 0.161322 16.2609C0.450297 16.8703 1.06618 17.2486 1.76918 17.2486H16.2362C16.9359 17.2486 17.5476 16.8708 17.8375 16.2642C17.9739 15.9801 18.0261 15.6628 17.9878 15.3499C17.9495 15.037 17.8224 14.7417 17.6216 14.4989ZM9.00012 21C9.67691 20.9995 10.3409 20.8156 10.9218 20.4679C11.5026 20.1202 11.9786 19.6217 12.2992 19.0252C12.3143 18.9966 12.3218 18.9646 12.3209 18.9322C12.32 18.8999 12.3107 18.8684 12.294 18.8407C12.2773 18.813 12.2538 18.7901 12.2256 18.7742C12.1975 18.7583 12.1657 18.75 12.1334 18.75H5.86776C5.83541 18.7499 5.80358 18.7582 5.77537 18.774C5.74716 18.7899 5.72354 18.8128 5.7068 18.8405C5.69005 18.8682 5.68077 18.8997 5.67984 18.9321C5.67891 18.9645 5.68637 18.9965 5.70149 19.0252C6.0221 19.6216 6.498 20.1201 7.07874 20.4678C7.65948 20.8155 8.32341 20.9994 9.00012 21Z" fill="white"/>
<path d="M18 3C18 4.65685 16.6569 6 15 6C13.3431 6 12 4.65685 12 3C12 1.34315 13.3431 0 15 0C16.6569 0 18 1.34315 18 3Z" fill="#FF0000"/>
</svg>
