<svg width="17" height="11" viewBox="0 0 17 11" fill="none" xmlns="http://www.w3.org/2000/svg">
<path d="M8.49964 7.66326C9.75132 7.66326 10.766 6.69248 10.766 5.49496C10.766 4.29744 9.75132 3.32666 8.49964 3.32666C7.24796 3.32666 6.23328 4.29744 6.23328 5.49496C6.23328 6.69248 7.24796 7.66326 8.49964 7.66326Z" fill="black"/>
<path d="M16.8157 4.90547C15.8787 3.51911 14.663 2.34145 13.3004 1.49954C11.7929 0.567169 10.1285 0.0742188 8.48754 0.0742188C6.98183 0.0742188 5.50125 0.485857 4.0869 1.29762C2.64457 2.1253 1.33786 3.33446 0.202909 4.89124C0.0747828 5.06718 0.00421875 5.27559 0.000183304 5.48998C-0.00385214 5.70438 0.0588232 5.91508 0.180245 6.09532C1.11548 7.49557 2.31913 8.67492 3.66054 9.50532C5.17086 10.4414 6.79627 10.9157 8.48754 10.9157C10.1416 10.9157 11.8095 10.4268 13.3107 9.50227C14.6726 8.66307 15.8858 7.481 16.8193 6.08313C16.9365 5.90708 16.9985 5.70254 16.9979 5.4938C16.9972 5.28506 16.934 5.08087 16.8157 4.90547V4.90547ZM8.49958 8.74743C7.82722 8.74743 7.16995 8.55667 6.61089 8.19929C6.05184 7.84191 5.61611 7.33394 5.35881 6.73963C5.1015 6.14533 5.03418 5.49137 5.16535 4.86045C5.29653 4.22954 5.6203 3.65001 6.09574 3.19514C6.57117 2.74028 7.17692 2.43051 7.83636 2.30502C8.49581 2.17952 9.17935 2.24393 9.80054 2.4901C10.4217 2.73627 10.9527 3.15314 11.3262 3.68801C11.6998 4.22287 11.8991 4.8517 11.8991 5.49497C11.8981 6.35728 11.5396 7.18398 10.9023 7.79372C10.265 8.40346 9.40088 8.74644 8.49958 8.74743V8.74743Z" fill="black"/>
</svg>
