<svg width="17" height="13" viewBox="0 0 17 13" fill="none" xmlns="http://www.w3.org/2000/svg">
<path d="M14.7322 13C14.6578 13.0001 14.5841 12.9861 14.5153 12.9589C14.4466 12.9316 14.3842 12.8916 14.3317 12.8411L1.86664 0.915442C1.76487 0.812956 1.70897 0.676488 1.71086 0.535136C1.71275 0.393783 1.77229 0.25873 1.87677 0.15877C1.98125 0.0588106 2.12241 0.00185424 2.27015 4.44781e-05C2.4179 -0.00176528 2.56054 0.0517149 2.66766 0.149082L15.1327 12.0747C15.2119 12.1506 15.2658 12.2471 15.2876 12.3522C15.3095 12.4574 15.2982 12.5663 15.2554 12.6653C15.2125 12.7644 15.1399 12.849 15.0468 12.9086C14.9537 12.9681 14.8442 12.9999 14.7322 13V13ZM8.21636 8.52279L6.38238 6.76816C6.37187 6.75819 6.35836 6.75162 6.34375 6.74938C6.32913 6.74713 6.31415 6.74932 6.30091 6.75563C6.28766 6.76195 6.27682 6.77208 6.2699 6.7846C6.26298 6.79711 6.26033 6.81139 6.26233 6.82542C6.33637 7.28064 6.55978 7.70154 6.90028 8.0273C7.24077 8.35306 7.68071 8.56681 8.15652 8.63765C8.17118 8.63956 8.1861 8.63702 8.19919 8.6304C8.21227 8.62378 8.22286 8.61341 8.22946 8.60074C8.23606 8.58807 8.23835 8.57373 8.236 8.55975C8.23365 8.54577 8.22679 8.53285 8.21636 8.52279ZM8.78296 4.46739L10.6198 6.22405C10.6303 6.23417 10.6438 6.24086 10.6585 6.24319C10.6732 6.24551 10.6883 6.24335 10.7016 6.23701C10.7149 6.23067 10.7258 6.22048 10.7327 6.20787C10.7397 6.19527 10.7423 6.1809 10.7402 6.1668C10.6663 5.71096 10.4428 5.28944 10.1018 4.96327C9.7609 4.6371 9.32032 4.4232 8.84386 4.35254C8.82911 4.35036 8.81401 4.3527 8.80073 4.35922C8.78745 4.36574 8.77666 4.37611 8.76991 4.38885C8.76315 4.40158 8.76078 4.41604 8.76312 4.43014C8.76546 4.44425 8.77241 4.45729 8.78296 4.46739V4.46739Z" fill="black"/>
<path d="M16.8214 7.08313C16.9387 6.90708 17.0006 6.70254 17 6.4938C16.9994 6.28506 16.9362 6.08087 16.8179 5.90547C15.8809 4.51911 14.6652 3.34145 13.3025 2.49954C11.7929 1.56717 10.1286 1.07422 8.48828 1.07422C7.62355 1.07535 6.76471 1.21024 5.94499 1.47366C5.92204 1.48096 5.90144 1.49376 5.88513 1.51083C5.86882 1.52791 5.85735 1.5487 5.85181 1.57121C5.84627 1.59373 5.84685 1.61723 5.85349 1.63947C5.86013 1.66172 5.87261 1.68196 5.88974 1.69828L7.56261 3.29876C7.57998 3.31542 7.6016 3.32746 7.62532 3.3337C7.64904 3.33993 7.67404 3.34015 7.69788 3.33434C8.26492 3.20213 8.85798 3.21182 9.41996 3.36247C9.98195 3.51311 10.4939 3.79965 10.9066 4.19448C11.3193 4.58931 11.6188 5.07914 11.7763 5.61681C11.9337 6.15448 11.9439 6.72188 11.8057 7.26438C11.7997 7.28714 11.7999 7.311 11.8064 7.33362C11.813 7.35625 11.8255 7.37687 11.8429 7.39346L14.2491 9.69728C14.2741 9.72128 14.3077 9.73542 14.3431 9.73693C14.3785 9.73843 14.4132 9.72719 14.4403 9.70542C15.3666 8.95009 16.1692 8.06617 16.8214 7.08313ZM8.49961 9.74743C7.98498 9.74745 7.47706 9.6357 7.01415 9.42059C6.55124 9.20548 6.14542 8.89262 5.82728 8.50562C5.50914 8.11861 5.28699 7.66755 5.17758 7.18645C5.06817 6.70535 5.07436 6.20676 5.19567 5.72828C5.20169 5.70552 5.20142 5.68166 5.1949 5.65903C5.18839 5.63641 5.17584 5.61579 5.15849 5.59919L2.79155 3.33366C2.76645 3.30962 2.73283 3.29547 2.69735 3.29403C2.66187 3.29259 2.62711 3.30395 2.59997 3.32587C1.73627 4.0309 0.935607 4.88874 0.203641 5.89124C0.0755152 6.06718 0.00495117 6.27559 0.000915726 6.48998C-0.00311972 6.70438 0.0595557 6.91508 0.180977 7.09532C1.11621 8.49557 2.31951 9.67492 3.66127 10.5053C5.17301 11.4414 6.797 11.9157 8.48828 11.9157C9.36172 11.9135 10.2295 11.7815 11.0606 11.5244C11.0838 11.5173 11.1046 11.5047 11.1212 11.4877C11.1377 11.4707 11.1494 11.4499 11.1552 11.4273C11.1609 11.4047 11.1604 11.381 11.1539 11.3587C11.1473 11.3363 11.1348 11.3159 11.1176 11.2995L9.43661 9.69153C9.41926 9.67493 9.39771 9.66292 9.37406 9.65668C9.35041 9.65045 9.32547 9.6502 9.30169 9.65595C9.03908 9.71683 8.76982 9.74754 8.49961 9.74743V9.74743Z" fill="black"/>
</svg>
