<svg width="110" height="110" viewBox="0 0 110 110" fill="none" xmlns="http://www.w3.org/2000/svg">
<rect width="110" height="110" fill="#D9D9D9"/>
<path d="M55 55.5C57.6624 55.5 60.2651 54.6936 62.4788 53.1827C64.6926 51.6718 66.418 49.5244 67.4368 47.0119C68.4557 44.4994 68.7223 41.7348 68.2029 39.0675C67.6835 36.4003 66.4014 33.9503 64.5187 32.0273C62.6361 30.1043 60.2375 28.7948 57.6262 28.2642C55.0149 27.7337 52.3083 28.006 49.8485 29.0467C47.3887 30.0874 45.2863 31.8497 43.8071 34.1109C42.328 36.3721 41.5385 39.0305 41.5385 41.75C41.5385 45.3967 42.9567 48.8941 45.4813 51.4727C48.0058 54.0513 51.4298 55.5 55 55.5ZM55 59.4286C46.6562 59.4286 30 64.6929 30 75.1429V83H80V75.1429C80 64.6929 63.3437 59.4286 55 59.4286Z" fill="#929191"/>
</svg>
