<svg width="21" height="22" viewBox="0 0 21 22" fill="none" xmlns="http://www.w3.org/2000/svg">
<path d="M10.375 11C11.44 11 12.481 10.6774 13.3665 10.0731C14.252 9.46874 14.9422 8.60975 15.3497 7.60476C15.7573 6.59977 15.8639 5.4939 15.6562 4.427C15.4484 3.36011 14.9355 2.3801 14.1825 1.61091C13.4294 0.841726 12.47 0.317902 11.4255 0.105683C10.381 -0.106535 9.29831 0.00238306 8.3144 0.418665C7.33049 0.834947 6.48952 1.5399 5.89786 2.44437C5.30619 3.34884 4.99038 4.4122 4.99038 5.5C4.99038 6.95869 5.55769 8.35764 6.5675 9.38909C7.57731 10.4205 8.94691 11 10.375 11ZM10.375 12.5714C7.0375 12.5714 0.375 14.6771 0.375 18.8571V22H20.375V18.8571C20.375 14.6771 13.7125 12.5714 10.375 12.5714Z" fill="#B1B1B1"/>
</svg>
