<svg width="22" height="21" viewBox="0 0 22 21" fill="none" xmlns="http://www.w3.org/2000/svg">
<path d="M17.1826 20.0722C17.0295 20.0728 16.8801 20.0258 16.7557 19.9378L10.9089 15.7604L5.06205 19.9378C4.93714 20.0271 4.78665 20.0749 4.63234 20.0744C4.47803 20.0738 4.3279 20.0249 4.20365 19.9348C4.07939 19.8446 3.98746 19.7178 3.94114 19.5727C3.89482 19.4277 3.89651 19.2719 3.94597 19.1278L6.22632 12.4715L0.31632 8.47733C0.188305 8.39091 0.0916868 8.26642 0.0405821 8.12203C-0.0105226 7.97764 -0.0134356 7.82093 0.0322687 7.6748C0.077973 7.52866 0.169899 7.40076 0.294617 7.30977C0.419334 7.21879 0.570305 7.1695 0.725474 7.1691H8.0166L10.2169 0.495753C10.2643 0.351677 10.3568 0.2261 10.4811 0.137037C10.6054 0.047973 10.7552 0 10.9089 0C11.0626 0 11.2123 0.047973 11.3366 0.137037C11.4609 0.2261 11.5534 0.351677 11.6008 0.495753L13.8011 7.17134H21.0923C21.2476 7.17126 21.3989 7.22021 21.524 7.31102C21.6491 7.40183 21.7414 7.52972 21.7874 7.67597C21.8334 7.82221 21.8307 7.97913 21.7796 8.12374C21.7285 8.26835 21.6319 8.39305 21.5037 8.47957L15.5914 12.4715L17.8704 19.126C17.9073 19.2338 17.9177 19.3486 17.9007 19.4611C17.8837 19.5736 17.8398 19.6804 17.7726 19.7729C17.7054 19.8653 17.6168 19.9407 17.5142 19.9927C17.4116 20.0448 17.2979 20.072 17.1826 20.0722Z" fill="#FF6827"/>
</svg>
