<svg width="17" height="5" viewBox="0 0 17 5" fill="none" xmlns="http://www.w3.org/2000/svg">
<path d="M4.25733 2.12866C4.25733 3.30429 3.30429 4.25733 2.12866 4.25733C0.953036 4.25733 0 3.30429 0 2.12866C0 0.953036 0.953036 0 2.12866 0C3.30429 0 4.25733 0.953036 4.25733 2.12866Z" fill="#B1B1B1"/>
<path d="M10.2573 2.12866C10.2573 3.30429 9.30429 4.25733 8.12866 4.25733C6.95304 4.25733 6 3.30429 6 2.12866C6 0.953036 6.95304 0 8.12866 0C9.30429 0 10.2573 0.953036 10.2573 2.12866Z" fill="#B1B1B1"/>
<path d="M16.2573 2.12866C16.2573 3.30429 15.3043 4.25733 14.1287 4.25733C12.953 4.25733 12 3.30429 12 2.12866C12 0.953036 12.953 0 14.1287 0C15.3043 0 16.2573 0.953036 16.2573 2.12866Z" fill="#B1B1B1"/>
</svg>
