<svg width="12" height="11" viewBox="0 0 12 11" fill="none" xmlns="http://www.w3.org/2000/svg">
<path d="M12 1.20313C11.5499 1.41 11.0736 1.54629 10.5863 1.60769C11.0984 1.29049 11.4836 0.786546 11.6695 0.190388C11.1853 0.489871 10.6564 0.700002 10.1055 0.811781C9.87352 0.554638 9.59453 0.350074 9.28548 0.210523C8.97644 0.0709716 8.64378 -0.000652416 8.30775 4.47784e-06C6.94725 4.47784e-06 5.84625 1.1476 5.84625 2.56226C5.84529 2.75903 5.8666 2.95522 5.90975 3.14663C4.93417 3.09826 3.97888 2.83503 3.105 2.37379C2.23111 1.91255 1.45787 1.26346 0.83475 0.468032C0.616144 0.857822 0.500533 1.30256 0.5 1.75577C0.5 2.64423 0.93825 3.42956 1.6 3.88966C1.20793 3.87981 0.823898 3.77006 0.4805 3.5697V3.60144C0.4805 4.84422 1.3305 5.87811 2.4555 6.11345C2.24395 6.1731 2.02594 6.20332 1.807 6.20335C1.65164 6.20364 1.49664 6.18769 1.34425 6.15575C1.657 7.17378 2.56725 7.91416 3.6455 7.93532C2.76934 8.6495 1.69365 9.03551 0.5875 9.03267C0.391154 9.03236 0.194991 9.02 0 8.99565C1.12529 9.75566 2.43336 10.1577 3.7685 10.1538C8.3025 10.1538 10.7795 6.2483 10.7795 2.86105C10.7795 2.75 10.7768 2.63894 10.7718 2.53053C11.2525 2.16881 11.6685 1.71931 12 1.20313V1.20313Z" fill="#929191"/>
</svg>
