<svg width="15" height="15" viewBox="0 0 15 15" fill="none" xmlns="http://www.w3.org/2000/svg">
<path d="M14.9116 6.3442L14.8345 6.0231H7.72048V8.9769H11.971C11.5297 11.0327 9.48191 12.1148 7.80922 12.1148C6.59215 12.1148 5.30922 11.6126 4.46007 10.8054C4.01206 10.3726 3.65545 9.85749 3.41065 9.28939C3.16585 8.72129 3.03767 8.1114 3.03345 7.49464C3.03345 6.25045 3.60341 5.00592 4.43277 4.18728C5.26212 3.36864 6.51468 2.9106 7.76007 2.9106C9.18635 2.9106 10.2085 3.65357 10.5908 3.99241L12.7304 1.90446C12.1027 1.36339 10.3785 0 7.69113 0C5.61775 0 3.62969 0.779129 2.17645 2.20011C0.742321 3.59933 0 5.62266 0 7.5C0 9.37734 0.702389 11.2996 2.09215 12.7098C3.57713 14.2138 5.68021 15 7.84573 15C9.81604 15 11.6836 14.2426 13.0147 12.8685C14.3232 11.5158 15 9.6442 15 7.68214C15 6.85614 14.9154 6.36562 14.9116 6.3442Z" fill="#FF6827"/>
</svg>
