<svg width="22" height="22" viewBox="0 0 22 22" fill="none" xmlns="http://www.w3.org/2000/svg">
<circle cx="10.91" cy="10.91" r="10.91" fill="#FF6827"/>
<path d="M9.32802 14.8377L7.25512 11.9356L5.20404 14.8377H3.58936L6.42596 10.9428L3.7421 7.20068H5.34587L7.29876 9.91727L9.22983 7.20068H10.7681L8.09519 10.8883L10.9645 14.8377H9.32802Z" fill="white"/>
<path d="M14.9676 7.20068C15.6295 7.20068 16.2041 7.30978 16.6914 7.52798C17.186 7.74618 17.5642 8.05894 17.8261 8.46624C18.0879 8.87355 18.2188 9.35723 18.2188 9.91727C18.2188 10.47 18.0879 10.9537 17.8261 11.3683C17.5642 11.7756 17.186 12.0884 16.6914 12.3066C16.2041 12.5248 15.6295 12.6339 14.9676 12.6339H13.2439V14.8377H11.8256V7.20068H14.9676ZM14.9022 11.4338C15.5204 11.4338 15.9895 11.3028 16.3096 11.041C16.6296 10.7792 16.7896 10.4046 16.7896 9.91727C16.7896 9.42996 16.6296 9.05538 16.3096 8.79354C15.9895 8.5317 15.5204 8.40078 14.9022 8.40078H13.2439V11.4338H14.9022Z" fill="white"/>
</svg>
